<mxfile host="app.diagrams.net" modified="2024-04-21T13:42:55.858Z" agent="Mozilla/5.0 (X11; Linux x86_64; rv:125.0) Gecko/20100101 Firefox/125.0" etag="hgc50OEWk4IOCLDK7Bmn" version="24.2.7" type="google">
  <diagram name="PÃ¡gina-1" id="BvKP64mzBPLsDO9Jx9As">
    <mxGraphModel grid="1" page="1" gridSize="10" guides="1" tooltips="1" connect="1" arrows="1" fold="1" pageScale="1" pageWidth="850" pageHeight="1100" math="0" shadow="0">
      <root>
        <mxCell id="0" />
        <mxCell id="1" parent="0" />
        <mxCell id="i9fuQxLKUlfy12cTWYng-1" value="USUARIO" style="rounded=1;arcSize=10;whiteSpace=wrap;html=1;align=center;" vertex="1" parent="1">
          <mxGeometry x="210" y="270" width="100" height="40" as="geometry" />
        </mxCell>
        <mxCell id="i9fuQxLKUlfy12cTWYng-2" value="email" style="ellipse;whiteSpace=wrap;html=1;align=center;fontStyle=0;" vertex="1" parent="1">
          <mxGeometry x="50" y="130" width="100" height="40" as="geometry" />
        </mxCell>
        <mxCell id="i9fuQxLKUlfy12cTWYng-3" value="nombre_usuario" style="ellipse;whiteSpace=wrap;html=1;align=center;fontStyle=0;" vertex="1" parent="1">
          <mxGeometry x="20" y="180" width="100" height="40" as="geometry" />
        </mxCell>
        <mxCell id="i9fuQxLKUlfy12cTWYng-4" value="PUBLICACION" style="rounded=1;arcSize=10;whiteSpace=wrap;html=1;align=center;" vertex="1" parent="1">
          <mxGeometry x="980" y="240" width="100" height="40" as="geometry" />
        </mxCell>
        <mxCell id="i9fuQxLKUlfy12cTWYng-5" value="fecha_cuenta" style="ellipse;whiteSpace=wrap;html=1;align=center;" vertex="1" parent="1">
          <mxGeometry x="410" y="180" width="100" height="40" as="geometry" />
        </mxCell>
        <mxCell id="i9fuQxLKUlfy12cTWYng-6" value="fecha_nacimiento" style="ellipse;whiteSpace=wrap;html=1;align=center;" vertex="1" parent="1">
          <mxGeometry x="370" y="130" width="100" height="40" as="geometry" />
        </mxCell>
        <mxCell id="i9fuQxLKUlfy12cTWYng-7" value="biografia" style="ellipse;whiteSpace=wrap;html=1;align=center;" vertex="1" parent="1">
          <mxGeometry x="330" y="80" width="100" height="40" as="geometry" />
        </mxCell>
        <mxCell id="i9fuQxLKUlfy12cTWYng-9" value="id_publicacion" style="ellipse;whiteSpace=wrap;html=1;align=center;fontStyle=4;" vertex="1" parent="1">
          <mxGeometry x="885" y="150" width="100" height="40" as="geometry" />
        </mxCell>
        <mxCell id="i9fuQxLKUlfy12cTWYng-10" value="tweet" style="ellipse;whiteSpace=wrap;html=1;align=center;" vertex="1" parent="1">
          <mxGeometry x="975" y="100" width="100" height="40" as="geometry" />
        </mxCell>
        <mxCell id="i9fuQxLKUlfy12cTWYng-11" value="fecha_publicacion" style="ellipse;whiteSpace=wrap;html=1;align=center;" vertex="1" parent="1">
          <mxGeometry x="1075" y="140" width="100" height="40" as="geometry" />
        </mxCell>
        <mxCell id="i9fuQxLKUlfy12cTWYng-12" value="CONTENIDO_MULTIMEDIA" style="rounded=1;arcSize=10;whiteSpace=wrap;html=1;align=center;" vertex="1" parent="1">
          <mxGeometry x="680" y="680" width="160" height="40" as="geometry" />
        </mxCell>
        <mxCell id="i9fuQxLKUlfy12cTWYng-17" value="id_contenido" style="ellipse;whiteSpace=wrap;html=1;align=center;fontStyle=4;" vertex="1" parent="1">
          <mxGeometry x="560" y="780" width="100" height="40" as="geometry" />
        </mxCell>
        <mxCell id="i9fuQxLKUlfy12cTWYng-18" value="tipo" style="ellipse;whiteSpace=wrap;html=1;align=center;" vertex="1" parent="1">
          <mxGeometry x="700" y="840" width="100" height="40" as="geometry" />
        </mxCell>
        <mxCell id="i9fuQxLKUlfy12cTWYng-19" value="url" style="ellipse;whiteSpace=wrap;html=1;align=center;" vertex="1" parent="1">
          <mxGeometry x="850" y="810" width="100" height="40" as="geometry" />
        </mxCell>
        <mxCell id="i9fuQxLKUlfy12cTWYng-20" value="SEGUIMIENTO" style="rounded=1;arcSize=10;whiteSpace=wrap;html=1;align=center;" vertex="1" parent="1">
          <mxGeometry x="140" y="420" width="100" height="40" as="geometry" />
        </mxCell>
        <mxCell id="i9fuQxLKUlfy12cTWYng-21" value="seguidoID" style="ellipse;whiteSpace=wrap;html=1;align=center;fontStyle=4;" vertex="1" parent="1">
          <mxGeometry x="210" y="530" width="100" height="40" as="geometry" />
        </mxCell>
        <mxCell id="i9fuQxLKUlfy12cTWYng-23" value="seguidorID" style="ellipse;whiteSpace=wrap;html=1;align=center;fontStyle=4" vertex="1" parent="1">
          <mxGeometry x="70" y="530" width="100" height="40" as="geometry" />
        </mxCell>
        <mxCell id="iGAWuFew3b74H168h_3H-1" value="imagen_avatar" style="ellipse;whiteSpace=wrap;html=1;align=center;" vertex="1" parent="1">
          <mxGeometry x="260" y="30" width="100" height="40" as="geometry" />
        </mxCell>
        <mxCell id="iGAWuFew3b74H168h_3H-2" value="alias" style="ellipse;whiteSpace=wrap;html=1;align=center;" vertex="1" parent="1">
          <mxGeometry x="150" y="30" width="100" height="40" as="geometry" />
        </mxCell>
        <mxCell id="iGAWuFew3b74H168h_3H-3" value="fotografia_fondo" style="ellipse;whiteSpace=wrap;html=1;align=center;" vertex="1" parent="1">
          <mxGeometry x="100" y="80" width="100" height="40" as="geometry" />
        </mxCell>
        <mxCell id="iGAWuFew3b74H168h_3H-6" value="" style="endArrow=none;html=1;rounded=0;exitX=1;exitY=1;exitDx=0;exitDy=0;entryX=0;entryY=0.75;entryDx=0;entryDy=0;" edge="1" parent="1" source="i9fuQxLKUlfy12cTWYng-3" target="i9fuQxLKUlfy12cTWYng-1">
          <mxGeometry relative="1" as="geometry">
            <mxPoint x="310" y="200" as="sourcePoint" />
            <mxPoint x="470" y="200" as="targetPoint" />
          </mxGeometry>
        </mxCell>
        <mxCell id="iGAWuFew3b74H168h_3H-7" value="" style="endArrow=none;html=1;rounded=0;exitX=1;exitY=1;exitDx=0;exitDy=0;entryX=0;entryY=0.5;entryDx=0;entryDy=0;" edge="1" parent="1" source="i9fuQxLKUlfy12cTWYng-2" target="i9fuQxLKUlfy12cTWYng-1">
          <mxGeometry relative="1" as="geometry">
            <mxPoint x="115" y="224" as="sourcePoint" />
            <mxPoint x="220" y="280" as="targetPoint" />
          </mxGeometry>
        </mxCell>
        <mxCell id="iGAWuFew3b74H168h_3H-8" value="" style="endArrow=none;html=1;rounded=0;exitX=1;exitY=1;exitDx=0;exitDy=0;entryX=0;entryY=0;entryDx=0;entryDy=0;" edge="1" parent="1" source="iGAWuFew3b74H168h_3H-3" target="i9fuQxLKUlfy12cTWYng-1">
          <mxGeometry relative="1" as="geometry">
            <mxPoint x="125" y="234" as="sourcePoint" />
            <mxPoint x="230" y="290" as="targetPoint" />
          </mxGeometry>
        </mxCell>
        <mxCell id="iGAWuFew3b74H168h_3H-9" value="" style="endArrow=none;html=1;rounded=0;exitX=0.68;exitY=0.95;exitDx=0;exitDy=0;entryX=0.25;entryY=0;entryDx=0;entryDy=0;exitPerimeter=0;" edge="1" parent="1" source="iGAWuFew3b74H168h_3H-2" target="i9fuQxLKUlfy12cTWYng-1">
          <mxGeometry relative="1" as="geometry">
            <mxPoint x="135" y="244" as="sourcePoint" />
            <mxPoint x="240" y="300" as="targetPoint" />
          </mxGeometry>
        </mxCell>
        <mxCell id="iGAWuFew3b74H168h_3H-10" value="" style="endArrow=none;html=1;rounded=0;exitX=0.5;exitY=1;exitDx=0;exitDy=0;entryX=0.5;entryY=0;entryDx=0;entryDy=0;" edge="1" parent="1" source="iGAWuFew3b74H168h_3H-1" target="i9fuQxLKUlfy12cTWYng-1">
          <mxGeometry relative="1" as="geometry">
            <mxPoint x="145" y="254" as="sourcePoint" />
            <mxPoint x="250" y="310" as="targetPoint" />
          </mxGeometry>
        </mxCell>
        <mxCell id="iGAWuFew3b74H168h_3H-11" value="" style="endArrow=none;html=1;rounded=0;exitX=0;exitY=1;exitDx=0;exitDy=0;entryX=0.75;entryY=0;entryDx=0;entryDy=0;" edge="1" parent="1" source="i9fuQxLKUlfy12cTWYng-7" target="i9fuQxLKUlfy12cTWYng-1">
          <mxGeometry relative="1" as="geometry">
            <mxPoint x="155" y="264" as="sourcePoint" />
            <mxPoint x="260" y="320" as="targetPoint" />
          </mxGeometry>
        </mxCell>
        <mxCell id="iGAWuFew3b74H168h_3H-12" value="" style="endArrow=none;html=1;rounded=0;exitX=0;exitY=1;exitDx=0;exitDy=0;entryX=1;entryY=0;entryDx=0;entryDy=0;" edge="1" parent="1" source="i9fuQxLKUlfy12cTWYng-6" target="i9fuQxLKUlfy12cTWYng-1">
          <mxGeometry relative="1" as="geometry">
            <mxPoint x="165" y="274" as="sourcePoint" />
            <mxPoint x="270" y="330" as="targetPoint" />
          </mxGeometry>
        </mxCell>
        <mxCell id="iGAWuFew3b74H168h_3H-13" value="" style="endArrow=none;html=1;rounded=0;exitX=0;exitY=1;exitDx=0;exitDy=0;entryX=1;entryY=0.5;entryDx=0;entryDy=0;" edge="1" parent="1" source="i9fuQxLKUlfy12cTWYng-5" target="i9fuQxLKUlfy12cTWYng-1">
          <mxGeometry relative="1" as="geometry">
            <mxPoint x="175" y="284" as="sourcePoint" />
            <mxPoint x="280" y="340" as="targetPoint" />
          </mxGeometry>
        </mxCell>
        <mxCell id="iGAWuFew3b74H168h_3H-14" value="publica" style="shape=rhombus;perimeter=rhombusPerimeter;whiteSpace=wrap;html=1;align=center;" vertex="1" parent="1">
          <mxGeometry x="640" y="190" width="120" height="60" as="geometry" />
        </mxCell>
        <mxCell id="iGAWuFew3b74H168h_3H-17" value="" style="endArrow=none;html=1;rounded=0;entryX=0.72;entryY=0.925;entryDx=0;entryDy=0;entryPerimeter=0;exitX=0.25;exitY=0;exitDx=0;exitDy=0;" edge="1" parent="1" source="i9fuQxLKUlfy12cTWYng-4" target="i9fuQxLKUlfy12cTWYng-9">
          <mxGeometry relative="1" as="geometry">
            <mxPoint x="760" y="320" as="sourcePoint" />
            <mxPoint x="920" y="320" as="targetPoint" />
          </mxGeometry>
        </mxCell>
        <mxCell id="iGAWuFew3b74H168h_3H-19" value="" style="endArrow=none;html=1;rounded=0;entryX=0.5;entryY=1;entryDx=0;entryDy=0;exitX=0.5;exitY=0;exitDx=0;exitDy=0;" edge="1" parent="1" source="i9fuQxLKUlfy12cTWYng-4" target="i9fuQxLKUlfy12cTWYng-10">
          <mxGeometry relative="1" as="geometry">
            <mxPoint x="1015" y="250" as="sourcePoint" />
            <mxPoint x="967" y="197" as="targetPoint" />
          </mxGeometry>
        </mxCell>
        <mxCell id="iGAWuFew3b74H168h_3H-20" value="" style="endArrow=none;html=1;rounded=0;entryX=0.33;entryY=1;entryDx=0;entryDy=0;exitX=0.75;exitY=0;exitDx=0;exitDy=0;entryPerimeter=0;" edge="1" parent="1" source="i9fuQxLKUlfy12cTWYng-4" target="i9fuQxLKUlfy12cTWYng-11">
          <mxGeometry relative="1" as="geometry">
            <mxPoint x="1040" y="250" as="sourcePoint" />
            <mxPoint x="1035" y="150" as="targetPoint" />
          </mxGeometry>
        </mxCell>
        <mxCell id="iGAWuFew3b74H168h_3H-23" value="" style="endArrow=none;html=1;rounded=0;exitX=1;exitY=0.75;exitDx=0;exitDy=0;entryX=0;entryY=0.5;entryDx=0;entryDy=0;" edge="1" parent="1" source="i9fuQxLKUlfy12cTWYng-1" target="iGAWuFew3b74H168h_3H-14">
          <mxGeometry relative="1" as="geometry">
            <mxPoint x="320" y="300" as="sourcePoint" />
            <mxPoint x="650" y="240" as="targetPoint" />
          </mxGeometry>
        </mxCell>
        <mxCell id="iGAWuFew3b74H168h_3H-24" value="" style="endArrow=none;html=1;rounded=0;exitX=1;exitY=1;exitDx=0;exitDy=0;entryX=0;entryY=0.5;entryDx=0;entryDy=0;" edge="1" parent="1" source="i9fuQxLKUlfy12cTWYng-1" target="iGAWuFew3b74H168h_3H-43">
          <mxGeometry relative="1" as="geometry">
            <mxPoint x="330" y="310" as="sourcePoint" />
            <mxPoint x="640" y="380" as="targetPoint" />
            <Array as="points" />
          </mxGeometry>
        </mxCell>
        <mxCell id="iGAWuFew3b74H168h_3H-25" value="" style="endArrow=none;html=1;rounded=0;exitX=1;exitY=0.5;exitDx=0;exitDy=0;entryX=0;entryY=0.5;entryDx=0;entryDy=0;" edge="1" parent="1" source="iGAWuFew3b74H168h_3H-14" target="i9fuQxLKUlfy12cTWYng-4">
          <mxGeometry relative="1" as="geometry">
            <mxPoint x="340" y="320" as="sourcePoint" />
            <mxPoint x="670" y="260" as="targetPoint" />
          </mxGeometry>
        </mxCell>
        <mxCell id="iGAWuFew3b74H168h_3H-26" value="" style="endArrow=none;html=1;rounded=0;exitX=1;exitY=0.5;exitDx=0;exitDy=0;entryX=0;entryY=0.75;entryDx=0;entryDy=0;" edge="1" parent="1" source="iGAWuFew3b74H168h_3H-43" target="i9fuQxLKUlfy12cTWYng-4">
          <mxGeometry relative="1" as="geometry">
            <mxPoint x="760" y="380" as="sourcePoint" />
            <mxPoint x="680" y="270" as="targetPoint" />
          </mxGeometry>
        </mxCell>
        <mxCell id="iGAWuFew3b74H168h_3H-27" value="id_usuario" style="ellipse;whiteSpace=wrap;html=1;align=center;fontStyle=4;" vertex="1" parent="1">
          <mxGeometry x="30" y="238" width="100" height="40" as="geometry" />
        </mxCell>
        <mxCell id="iGAWuFew3b74H168h_3H-28" value="" style="endArrow=none;html=1;rounded=0;exitX=1.01;exitY=0.675;exitDx=0;exitDy=0;entryX=0;entryY=0.75;entryDx=0;entryDy=0;exitPerimeter=0;" edge="1" parent="1" source="iGAWuFew3b74H168h_3H-27" target="i9fuQxLKUlfy12cTWYng-1">
          <mxGeometry relative="1" as="geometry">
            <mxPoint x="115" y="224" as="sourcePoint" />
            <mxPoint x="220" y="310" as="targetPoint" />
          </mxGeometry>
        </mxCell>
        <mxCell id="iGAWuFew3b74H168h_3H-29" value="" style="endArrow=none;html=1;rounded=0;exitX=0.5;exitY=0;exitDx=0;exitDy=0;entryX=0.25;entryY=1;entryDx=0;entryDy=0;" edge="1" parent="1" source="i9fuQxLKUlfy12cTWYng-23" target="i9fuQxLKUlfy12cTWYng-20">
          <mxGeometry relative="1" as="geometry">
            <mxPoint x="20" y="460" as="sourcePoint" />
            <mxPoint x="50" y="470" as="targetPoint" />
          </mxGeometry>
        </mxCell>
        <mxCell id="iGAWuFew3b74H168h_3H-30" value="" style="endArrow=none;html=1;rounded=0;exitX=0.5;exitY=0;exitDx=0;exitDy=0;entryX=0.75;entryY=1;entryDx=0;entryDy=0;" edge="1" parent="1" source="i9fuQxLKUlfy12cTWYng-21" target="i9fuQxLKUlfy12cTWYng-20">
          <mxGeometry relative="1" as="geometry">
            <mxPoint x="130" y="540" as="sourcePoint" />
            <mxPoint x="175" y="470" as="targetPoint" />
          </mxGeometry>
        </mxCell>
        <mxCell id="iGAWuFew3b74H168h_3H-31" value="" style="endArrow=none;html=1;rounded=0;entryX=0.25;entryY=1;entryDx=0;entryDy=0;exitX=1;exitY=0;exitDx=0;exitDy=0;" edge="1" parent="1" source="i9fuQxLKUlfy12cTWYng-17" target="i9fuQxLKUlfy12cTWYng-12">
          <mxGeometry relative="1" as="geometry">
            <mxPoint x="470" y="660" as="sourcePoint" />
            <mxPoint x="630" y="660" as="targetPoint" />
          </mxGeometry>
        </mxCell>
        <mxCell id="iGAWuFew3b74H168h_3H-32" value="" style="endArrow=none;html=1;rounded=0;entryX=0.5;entryY=1;entryDx=0;entryDy=0;exitX=0.5;exitY=0;exitDx=0;exitDy=0;" edge="1" parent="1" source="i9fuQxLKUlfy12cTWYng-18" target="i9fuQxLKUlfy12cTWYng-12">
          <mxGeometry relative="1" as="geometry">
            <mxPoint x="470" y="660" as="sourcePoint" />
            <mxPoint x="630" y="660" as="targetPoint" />
          </mxGeometry>
        </mxCell>
        <mxCell id="iGAWuFew3b74H168h_3H-33" value="" style="endArrow=none;html=1;rounded=0;entryX=0.75;entryY=1;entryDx=0;entryDy=0;exitX=0.5;exitY=0;exitDx=0;exitDy=0;" edge="1" parent="1" source="i9fuQxLKUlfy12cTWYng-19" target="i9fuQxLKUlfy12cTWYng-12">
          <mxGeometry relative="1" as="geometry">
            <mxPoint x="470" y="660" as="sourcePoint" />
            <mxPoint x="630" y="660" as="targetPoint" />
          </mxGeometry>
        </mxCell>
        <mxCell id="iGAWuFew3b74H168h_3H-34" value="" style="endArrow=none;html=1;rounded=0;entryX=0.75;entryY=1;entryDx=0;entryDy=0;exitX=0.5;exitY=0;exitDx=0;exitDy=0;" edge="1" parent="1" source="iGAWuFew3b74H168h_3H-35" target="i9fuQxLKUlfy12cTWYng-4">
          <mxGeometry relative="1" as="geometry">
            <mxPoint x="780" y="310" as="sourcePoint" />
            <mxPoint x="940" y="310" as="targetPoint" />
            <Array as="points" />
          </mxGeometry>
        </mxCell>
        <mxCell id="iGAWuFew3b74H168h_3H-36" value="" style="endArrow=none;html=1;rounded=0;entryX=1;entryY=0.5;entryDx=0;entryDy=0;exitX=1;exitY=0;exitDx=0;exitDy=0;" edge="1" parent="1" source="i9fuQxLKUlfy12cTWYng-4" target="iGAWuFew3b74H168h_3H-35">
          <mxGeometry relative="1" as="geometry">
            <mxPoint x="1080" y="240" as="sourcePoint" />
            <mxPoint x="1005" y="280" as="targetPoint" />
            <Array as="points">
              <mxPoint x="1160" y="240" />
              <mxPoint x="1160" y="320" />
              <mxPoint x="1160" y="400" />
            </Array>
          </mxGeometry>
        </mxCell>
        <mxCell id="iGAWuFew3b74H168h_3H-35" value="responde" style="shape=rhombus;perimeter=rhombusPerimeter;whiteSpace=wrap;html=1;align=center;" vertex="1" parent="1">
          <mxGeometry x="1000" y="370" width="120" height="60" as="geometry" />
        </mxCell>
        <mxCell id="iGAWuFew3b74H168h_3H-38" value="" style="endArrow=none;html=1;rounded=0;exitX=1;exitY=0.5;exitDx=0;exitDy=0;entryX=0.5;entryY=1;entryDx=0;entryDy=0;" edge="1" parent="1" source="i9fuQxLKUlfy12cTWYng-20" target="i9fuQxLKUlfy12cTWYng-1">
          <mxGeometry relative="1" as="geometry">
            <mxPoint x="410" y="380" as="sourcePoint" />
            <mxPoint x="570" y="380" as="targetPoint" />
            <Array as="points">
              <mxPoint x="260" y="440" />
            </Array>
          </mxGeometry>
        </mxCell>
        <mxCell id="iGAWuFew3b74H168h_3H-39" value="" style="endArrow=none;html=1;rounded=0;exitX=0;exitY=0;exitDx=0;exitDy=0;entryX=0;entryY=1;entryDx=0;entryDy=0;" edge="1" parent="1" source="i9fuQxLKUlfy12cTWYng-20" target="i9fuQxLKUlfy12cTWYng-1">
          <mxGeometry relative="1" as="geometry">
            <mxPoint x="250" y="450" as="sourcePoint" />
            <mxPoint x="245" y="320" as="targetPoint" />
            <Array as="points">
              <mxPoint x="140" y="310" />
            </Array>
          </mxGeometry>
        </mxCell>
        <mxCell id="iGAWuFew3b74H168h_3H-40" value="contiene" style="shape=rhombus;perimeter=rhombusPerimeter;whiteSpace=wrap;html=1;align=center;" vertex="1" parent="1">
          <mxGeometry x="770" y="490" width="120" height="60" as="geometry" />
        </mxCell>
        <mxCell id="iGAWuFew3b74H168h_3H-41" value="" style="endArrow=none;html=1;rounded=0;exitX=0.25;exitY=1;exitDx=0;exitDy=0;entryX=0.5;entryY=0;entryDx=0;entryDy=0;" edge="1" parent="1" source="i9fuQxLKUlfy12cTWYng-4" target="iGAWuFew3b74H168h_3H-40">
          <mxGeometry relative="1" as="geometry">
            <mxPoint x="840" y="520" as="sourcePoint" />
            <mxPoint x="1000" y="520" as="targetPoint" />
          </mxGeometry>
        </mxCell>
        <mxCell id="iGAWuFew3b74H168h_3H-42" value="" style="endArrow=none;html=1;rounded=0;exitX=0.5;exitY=1;exitDx=0;exitDy=0;entryX=0.25;entryY=0;entryDx=0;entryDy=0;" edge="1" parent="1" source="iGAWuFew3b74H168h_3H-40" target="i9fuQxLKUlfy12cTWYng-12">
          <mxGeometry relative="1" as="geometry">
            <mxPoint x="855" y="455" as="sourcePoint" />
            <mxPoint x="710" y="680" as="targetPoint" />
          </mxGeometry>
        </mxCell>
        <mxCell id="iGAWuFew3b74H168h_3H-43" value="RETUITEA" style="rounded=1;arcSize=10;whiteSpace=wrap;html=1;align=center;" vertex="1" parent="1">
          <mxGeometry x="650" y="290" width="100" height="40" as="geometry" />
        </mxCell>
        <mxCell id="iGAWuFew3b74H168h_3H-44" value="(1, 1) " style="text;strokeColor=none;fillColor=none;spacingLeft=4;spacingRight=4;overflow=hidden;rotatable=0;points=[[0,0.5],[1,0.5]];portConstraint=eastwest;fontSize=12;whiteSpace=wrap;html=1;" vertex="1" parent="1">
          <mxGeometry x="350" y="263" width="40" height="30" as="geometry" />
        </mxCell>
        <mxCell id="iGAWuFew3b74H168h_3H-45" value="(1,M)" style="text;strokeColor=none;fillColor=none;spacingLeft=4;spacingRight=4;overflow=hidden;rotatable=0;points=[[0,0.5],[1,0.5]];portConstraint=eastwest;fontSize=12;whiteSpace=wrap;html=1;" vertex="1" parent="1">
          <mxGeometry x="935" y="232" width="40" height="30" as="geometry" />
        </mxCell>
        <mxCell id="iGAWuFew3b74H168h_3H-46" value="(1, M) " style="text;strokeColor=none;fillColor=none;spacingLeft=4;spacingRight=4;overflow=hidden;rotatable=0;points=[[0,0.5],[1,0.5]];portConstraint=eastwest;fontSize=12;whiteSpace=wrap;html=1;" vertex="1" parent="1">
          <mxGeometry x="680" y="160" width="50" height="30" as="geometry" />
        </mxCell>
        <mxCell id="iGAWuFew3b74H168h_3H-47" value="(1, N) " style="text;strokeColor=none;fillColor=none;spacingLeft=4;spacingRight=4;overflow=hidden;rotatable=0;points=[[0,0.5],[1,0.5]];portConstraint=eastwest;fontSize=12;whiteSpace=wrap;html=1;" vertex="1" parent="1">
          <mxGeometry x="350" y="290" width="40" height="30" as="geometry" />
        </mxCell>
        <mxCell id="iGAWuFew3b74H168h_3H-48" value="(1,M)" style="text;strokeColor=none;fillColor=none;spacingLeft=4;spacingRight=4;overflow=hidden;rotatable=0;points=[[0,0.5],[1,0.5]];portConstraint=eastwest;fontSize=12;whiteSpace=wrap;html=1;" vertex="1" parent="1">
          <mxGeometry x="920" y="256" width="40" height="30" as="geometry" />
        </mxCell>
        <mxCell id="iGAWuFew3b74H168h_3H-49" value="(N, M) " style="text;strokeColor=none;fillColor=none;spacingLeft=4;spacingRight=4;overflow=hidden;rotatable=0;points=[[0,0.5],[1,0.5]];portConstraint=eastwest;fontSize=12;whiteSpace=wrap;html=1;" vertex="1" parent="1">
          <mxGeometry x="675" y="260" width="50" height="30" as="geometry" />
        </mxCell>
        <mxCell id="iGAWuFew3b74H168h_3H-50" value="fecha_hora" style="ellipse;whiteSpace=wrap;html=1;align=center;" vertex="1" parent="1">
          <mxGeometry x="510" y="340" width="100" height="40" as="geometry" />
        </mxCell>
        <mxCell id="iGAWuFew3b74H168h_3H-51" value="" style="endArrow=none;html=1;rounded=0;exitX=0;exitY=1;exitDx=0;exitDy=0;entryX=1;entryY=0;entryDx=0;entryDy=0;" edge="1" parent="1" source="iGAWuFew3b74H168h_3H-43" target="iGAWuFew3b74H168h_3H-50">
          <mxGeometry relative="1" as="geometry">
            <mxPoint x="435" y="224" as="sourcePoint" />
            <mxPoint x="320" y="300" as="targetPoint" />
          </mxGeometry>
        </mxCell>
        <mxCell id="iGAWuFew3b74H168h_3H-52" value="FAVORITO" style="rounded=1;arcSize=10;whiteSpace=wrap;html=1;align=center;" vertex="1" parent="1">
          <mxGeometry x="650" y="410" width="100" height="40" as="geometry" />
        </mxCell>
        <mxCell id="iGAWuFew3b74H168h_3H-53" value="" style="endArrow=none;html=1;rounded=0;exitX=0.75;exitY=1;exitDx=0;exitDy=0;entryX=0;entryY=0.75;entryDx=0;entryDy=0;" edge="1" parent="1" source="i9fuQxLKUlfy12cTWYng-1" target="iGAWuFew3b74H168h_3H-52">
          <mxGeometry relative="1" as="geometry">
            <mxPoint x="320" y="320" as="sourcePoint" />
            <mxPoint x="660" y="320" as="targetPoint" />
            <Array as="points" />
          </mxGeometry>
        </mxCell>
        <mxCell id="iGAWuFew3b74H168h_3H-54" value="fecha_hora" style="ellipse;whiteSpace=wrap;html=1;align=center;" vertex="1" parent="1">
          <mxGeometry x="510" y="460" width="100" height="40" as="geometry" />
        </mxCell>
        <mxCell id="iGAWuFew3b74H168h_3H-55" value="" style="endArrow=none;html=1;rounded=0;exitX=0.25;exitY=1;exitDx=0;exitDy=0;entryX=1;entryY=0.5;entryDx=0;entryDy=0;" edge="1" parent="1" source="iGAWuFew3b74H168h_3H-52" target="iGAWuFew3b74H168h_3H-54">
          <mxGeometry relative="1" as="geometry">
            <mxPoint x="660" y="340" as="sourcePoint" />
            <mxPoint x="605" y="356" as="targetPoint" />
          </mxGeometry>
        </mxCell>
        <mxCell id="iGAWuFew3b74H168h_3H-56" value="" style="endArrow=none;html=1;rounded=0;exitX=1;exitY=0.75;exitDx=0;exitDy=0;entryX=0;entryY=1;entryDx=0;entryDy=0;" edge="1" parent="1" source="iGAWuFew3b74H168h_3H-52" target="i9fuQxLKUlfy12cTWYng-4">
          <mxGeometry relative="1" as="geometry">
            <mxPoint x="760" y="320" as="sourcePoint" />
            <mxPoint x="990" y="280" as="targetPoint" />
          </mxGeometry>
        </mxCell>
        <mxCell id="iGAWuFew3b74H168h_3H-57" value="(N, M) " style="text;strokeColor=none;fillColor=none;spacingLeft=4;spacingRight=4;overflow=hidden;rotatable=0;points=[[0,0.5],[1,0.5]];portConstraint=eastwest;fontSize=12;whiteSpace=wrap;html=1;" vertex="1" parent="1">
          <mxGeometry x="675" y="385" width="50" height="30" as="geometry" />
        </mxCell>
        <mxCell id="iGAWuFew3b74H168h_3H-58" value="(1, N) " style="text;strokeColor=none;fillColor=none;spacingLeft=4;spacingRight=4;overflow=hidden;rotatable=0;points=[[0,0.5],[1,0.5]];portConstraint=eastwest;fontSize=12;whiteSpace=wrap;html=1;" vertex="1" parent="1">
          <mxGeometry x="330" y="310" width="40" height="30" as="geometry" />
        </mxCell>
        <mxCell id="iGAWuFew3b74H168h_3H-59" value="(1, M) " style="text;strokeColor=none;fillColor=none;spacingLeft=4;spacingRight=4;overflow=hidden;rotatable=0;points=[[0,0.5],[1,0.5]];portConstraint=eastwest;fontSize=12;whiteSpace=wrap;html=1;" vertex="1" parent="1">
          <mxGeometry x="910" y="283" width="45" height="30" as="geometry" />
        </mxCell>
        <mxCell id="iGAWuFew3b74H168h_3H-60" value="(1, 1) " style="text;strokeColor=none;fillColor=none;spacingLeft=4;spacingRight=4;overflow=hidden;rotatable=0;points=[[0,0.5],[1,0.5]];portConstraint=eastwest;fontSize=12;whiteSpace=wrap;html=1;" vertex="1" parent="1">
          <mxGeometry x="1000" y="280" width="45" height="30" as="geometry" />
        </mxCell>
        <mxCell id="iGAWuFew3b74H168h_3H-61" value="(1, M) " style="text;strokeColor=none;fillColor=none;spacingLeft=4;spacingRight=4;overflow=hidden;rotatable=0;points=[[0,0.5],[1,0.5]];portConstraint=eastwest;fontSize=12;whiteSpace=wrap;html=1;" vertex="1" parent="1">
          <mxGeometry x="750" y="650" width="45" height="30" as="geometry" />
        </mxCell>
        <mxCell id="iGAWuFew3b74H168h_3H-62" value="(1, M) " style="text;strokeColor=none;fillColor=none;spacingLeft=4;spacingRight=4;overflow=hidden;rotatable=0;points=[[0,0.5],[1,0.5]];portConstraint=eastwest;fontSize=12;whiteSpace=wrap;html=1;" vertex="1" parent="1">
          <mxGeometry x="890" y="510" width="45" height="30" as="geometry" />
        </mxCell>
        <mxCell id="iGAWuFew3b74H168h_3H-63" value="(1, M) " style="text;strokeColor=none;fillColor=none;spacingLeft=4;spacingRight=4;overflow=hidden;rotatable=0;points=[[0,0.5],[1,0.5]];portConstraint=eastwest;fontSize=12;whiteSpace=wrap;html=1;" vertex="1" parent="1">
          <mxGeometry x="1060" y="280" width="45" height="30" as="geometry" />
        </mxCell>
        <mxCell id="iGAWuFew3b74H168h_3H-64" value="(1, 1) " style="text;strokeColor=none;fillColor=none;spacingLeft=4;spacingRight=4;overflow=hidden;rotatable=0;points=[[0,0.5],[1,0.5]];portConstraint=eastwest;fontSize=12;whiteSpace=wrap;html=1;" vertex="1" parent="1">
          <mxGeometry x="1075" y="238" width="45" height="30" as="geometry" />
        </mxCell>
        <mxCell id="iGAWuFew3b74H168h_3H-65" value="(1, M) " style="text;strokeColor=none;fillColor=none;spacingLeft=4;spacingRight=4;overflow=hidden;rotatable=0;points=[[0,0.5],[1,0.5]];portConstraint=eastwest;fontSize=12;whiteSpace=wrap;html=1;" vertex="1" parent="1">
          <mxGeometry x="1075" y="355" width="45" height="30" as="geometry" />
        </mxCell>
        <mxCell id="iGAWuFew3b74H168h_3H-66" value="(1, M) " style="text;strokeColor=none;fillColor=none;spacingLeft=4;spacingRight=4;overflow=hidden;rotatable=0;points=[[0,0.5],[1,0.5]];portConstraint=eastwest;fontSize=12;whiteSpace=wrap;html=1;" vertex="1" parent="1">
          <mxGeometry x="160" y="290" width="50" height="30" as="geometry" />
        </mxCell>
        <mxCell id="iGAWuFew3b74H168h_3H-67" value="(1, M) " style="text;strokeColor=none;fillColor=none;spacingLeft=4;spacingRight=4;overflow=hidden;rotatable=0;points=[[0,0.5],[1,0.5]];portConstraint=eastwest;fontSize=12;whiteSpace=wrap;html=1;" vertex="1" parent="1">
          <mxGeometry x="165" y="390" width="50" height="30" as="geometry" />
        </mxCell>
        <mxCell id="iGAWuFew3b74H168h_3H-68" value="(1, M) " style="text;strokeColor=none;fillColor=none;spacingLeft=4;spacingRight=4;overflow=hidden;rotatable=0;points=[[0,0.5],[1,0.5]];portConstraint=eastwest;fontSize=12;whiteSpace=wrap;html=1;" vertex="1" parent="1">
          <mxGeometry x="215" y="310" width="50" height="30" as="geometry" />
        </mxCell>
      </root>
    </mxGraphModel>
  </diagram>
</mxfile>
